<svg id="Layer_1" data-name="Layer 1" xmlns="http://www.w3.org/2000/svg" width="210mm" height="68.07mm" viewBox="0 0 595.276 192.953">
  <defs>
    <style>
      .cls-1, .cls-5, .cls-7, .cls-8 {
        fill: none;
        stroke: #000;
        stroke-width: 0.75px;
      }

      .cls-1, .cls-7, .cls-8 {
        stroke-linecap: round;
        stroke-linejoin: round;
      }

      .cls-2 {
        fill: #e6e6e6;
      }

      .cls-3 {
        fill: #3f9c35;
      }

      .cls-4 {
        fill: #fff;
      }

      .cls-5 {
        stroke-miterlimit: 10;
      }

      .cls-6 {
        fill: #faaa4f;
      }

      .cls-7 {
        stroke-dasharray: 2.905 2.905;
      }

      .cls-8 {
        stroke-dasharray: 3.017 3.017;
      }

      .cls-9 {
        fill: #020202;
      }

      .cls-10 {
        fill: #06c;
      }
    </style>
  </defs>
  <g>
    <line class="cls-1" x1="366.631" y1="58.095" x2="342.937" y2="58.095"/>
    <polygon points="343.758 55.29 338.9 58.095 343.758 60.9 343.758 55.29"/>
  </g>
  <g>
    <line class="cls-1" x1="203.346" y1="58.095" x2="179.652" y2="58.095"/>
    <polygon points="180.473 55.29 175.615 58.095 180.473 60.9 180.473 55.29"/>
  </g>
  <g>
    <line class="cls-1" x1="311.232" y1="101.285" x2="311.232" y2="78.309"/>
    <polygon points="314.037 100.464 311.232 105.322 308.427 100.464 314.037 100.464"/>
  </g>
  <g>
    <line class="cls-1" x1="147.126" y1="100.967" x2="147.126" y2="78.917"/>
    <polygon points="149.93 100.146 147.126 105.003 144.321 100.146 149.93 100.146"/>
  </g>
  <g>
    <rect class="cls-2" x="529.958" y="106.279" width="52.195" height="40.106"/>
    <path class="cls-3" d="M581.654,106.779v39.106h-51.2V106.779h51.2m1-1h-53.2v41.106h53.2V105.779Z"/>
  </g>
  <g>
    <line class="cls-4" x1="529.392" y1="126.332" x2="501.662" y2="126.332"/>
    <g>
      <line class="cls-5" x1="529.392" y1="126.332" x2="505.698" y2="126.332"/>
      <polygon points="506.519 123.528 501.661 126.332 506.519 129.137 506.519 123.528"/>
    </g>
  </g>
  <g>
    <line class="cls-4" x1="448.238" y1="126.332" x2="420.508" y2="126.332"/>
    <g>
      <line class="cls-5" x1="448.238" y1="126.332" x2="424.545" y2="126.332"/>
      <polygon points="425.365 123.528 420.508 126.332 425.365 129.137 425.365 123.528"/>
    </g>
  </g>
  <g>
    <line class="cls-4" x1="366.107" y1="126.332" x2="338.377" y2="126.332"/>
    <g>
      <line class="cls-5" x1="366.107" y1="126.332" x2="342.413" y2="126.332"/>
      <polygon points="343.234 123.528 338.377 126.332 343.234 129.137 343.234 123.528"/>
    </g>
  </g>
  <g>
    <line class="cls-4" x1="284.954" y1="126.332" x2="257.223" y2="126.332"/>
    <g>
      <line class="cls-5" x1="284.954" y1="126.332" x2="261.26" y2="126.332"/>
      <polygon points="262.081 123.528 257.223 126.332 262.081 129.137 262.081 123.528"/>
    </g>
  </g>
  <rect class="cls-2" x="366.242" y="37.542" width="53.196" height="41.106" transform="translate(785.68 116.19) rotate(-180)"/>
  <rect class="cls-2" x="284.634" y="37.542" width="53.196" height="41.106" transform="translate(622.464 116.19) rotate(-180)"/>
  <rect class="cls-2" x="203.026" y="37.542" width="53.196" height="41.106" transform="translate(459.249 116.19) rotate(-180)"/>
  <rect class="cls-6" x="203.026" y="27.776" width="53.196" height="8.613" transform="translate(459.249 64.165) rotate(-180)"/>
  <rect class="cls-2" x="121.418" y="37.542" width="53.196" height="41.106" transform="translate(296.033 116.19) rotate(-180)"/>
  <g>
    <line class="cls-4" x1="202.709" y1="126.332" x2="174.978" y2="126.332"/>
    <g>
      <line class="cls-5" x1="202.709" y1="126.332" x2="179.015" y2="126.332"/>
      <polygon points="179.835 123.528 174.978 126.332 179.835 129.137 179.835 123.528"/>
    </g>
  </g>
  <g>
    <line class="cls-4" x1="121.555" y1="126.332" x2="93.825" y2="126.332"/>
    <g>
      <line class="cls-5" x1="121.555" y1="126.332" x2="97.861" y2="126.332"/>
      <polygon points="98.682 123.528 93.825 126.332 98.682 129.137 98.682 123.528"/>
    </g>
  </g>
  <g>
    <line class="cls-4" x1="40.353" y1="126.332" x2="12.622" y2="126.332"/>
    <g>
      <line class="cls-5" x1="40.353" y1="126.332" x2="16.659" y2="126.332"/>
      <polygon points="17.479 123.528 12.622 126.332 17.479 129.137 17.479 123.528"/>
    </g>
  </g>
  <g>
    <line class="cls-1" x1="557.386" y1="104.714" x2="557.386" y2="103.214"/>
    <line class="cls-7" x1="557.386" y1="100.309" x2="557.386" y2="61.095"/>
    <polyline class="cls-1" points="557.386 59.642 557.386 58.142 555.886 58.142"/>
    <line class="cls-8" x1="552.87" y1="58.142" x2="427.678" y2="58.142"/>
    <line class="cls-1" x1="426.169" y1="58.142" x2="424.669" y2="58.142"/>
    <polygon points="425.49 55.338 420.633 58.142 425.49 60.947 425.49 55.338"/>
  </g>
  <g>
    <path d="M540.374,170.246h3.139v.694h-2.454l-.066,1.5a2.278,2.278,0,0,1,1.076-.259,1.558,1.558,0,0,1,1.717,1.563,1.763,1.763,0,0,1-1.953,1.747,2.6,2.6,0,0,1-1.813-.7l.487-.553a1.919,1.919,0,0,0,1.355.553.995.995,0,1,0-.021-1.976,2.182,2.182,0,0,0-1.025.273l-.56-.17Z"/>
    <path d="M547.13,170.961h-2.956v-.715h3.839v.6l-2.336,4.555h-.943Z"/>
    <path d="M551.55,173.438h.663v.692h-.663v1.276h-.8V174.13h-2.771v-.655l2.66-3.229h.915Zm-.8,0v-2.329l-1.908,2.329Z"/>
    <path d="M556.618,172.686c0,1.673-.958,2.786-2.4,2.786a2.328,2.328,0,0,1-1.371-.442l.443-.6a1.628,1.628,0,0,0,.994.316c.958,0,1.519-.751,1.533-2.048a1.787,1.787,0,0,1-1.422.752,1.6,1.6,0,0,1-1.724-1.585,1.7,1.7,0,0,1,1.812-1.695A2.236,2.236,0,0,1,556.618,172.686Zm-.841-.493c-.125-.8-.611-1.327-1.267-1.327a.993.993,0,0,0-1.054.98.972.972,0,0,0,1.061.965A1.612,1.612,0,0,0,555.777,172.193Z"/>
    <path d="M557.352,172.958c0-1.672.958-2.785,2.4-2.785a2.314,2.314,0,0,1,1.37.443l-.442.6a1.634,1.634,0,0,0-1-.317c-.958,0-1.518.752-1.533,2.049a1.786,1.786,0,0,1,1.422-.751,1.6,1.6,0,0,1,1.724,1.584,1.7,1.7,0,0,1-1.812,1.7A2.236,2.236,0,0,1,557.352,172.958Zm.841.5c.125.8.611,1.327,1.268,1.327a.994.994,0,0,0,1.053-.981.972.972,0,0,0-1.061-.966A1.614,1.614,0,0,0,558.193,173.453Z"/>
    <path d="M562.022,172.958c0-1.672.958-2.785,2.4-2.785a2.314,2.314,0,0,1,1.37.443l-.442.6a1.634,1.634,0,0,0-1-.317c-.958,0-1.518.752-1.533,2.049a1.786,1.786,0,0,1,1.422-.751,1.6,1.6,0,0,1,1.724,1.584,1.7,1.7,0,0,1-1.812,1.7A2.236,2.236,0,0,1,562.022,172.958Zm.841.5c.125.8.611,1.327,1.268,1.327a.994.994,0,0,0,1.053-.981.972.972,0,0,0-1.061-.966A1.613,1.613,0,0,0,562.863,173.453Z"/>
    <path d="M568.2,175.406h-.8v-4.319l-.914.4v-.715l1.209-.524h.509Z"/>
    <path d="M570.148,174.934a.516.516,0,1,1-.515-.538A.527.527,0,0,1,570.148,174.934Z"/>
    <path d="M571.953,174.934a.516.516,0,1,1-.516-.538A.527.527,0,0,1,571.953,174.934Z"/>
  </g>
  <g>
    <path d="M459.547,156.45a1.876,1.876,0,0,1-1.879-1.916,1.818,1.818,0,0,1,1.8-1.909,1.773,1.773,0,0,1,1.747,1.9v.206h-2.728a1.128,1.128,0,0,0,1.106,1.01,1.2,1.2,0,0,0,.877-.347l.545.509A2.132,2.132,0,0,1,459.547,156.45Zm-1.047-2.226h1.924a1.011,1.011,0,0,0-.965-.921A.992.992,0,0,0,458.5,154.224Z"/>
    <path d="M461.932,154.954a1.359,1.359,0,0,1,1.114-1.26,1.258,1.258,0,0,1-.944-1.15,1.783,1.783,0,0,1,3.486,0,1.26,1.26,0,0,1-.936,1.15,1.359,1.359,0,0,1,1.112,1.26c0,.877-.8,1.5-1.916,1.5S461.932,155.831,461.932,154.954Zm3.022-.059c0-.5-.472-.877-1.106-.877s-1.112.376-1.112.877a1.135,1.135,0,0,0,2.218,0Zm-.154-2.3a.971.971,0,1,0-.952.8A.871.871,0,0,0,464.8,152.6Z"/>
    <path d="M469.3,155.308l.5.5a1.923,1.923,0,0,1-1.445.641,1.91,1.91,0,0,1,0-3.818,1.993,1.993,0,0,1,1.474.619l-.516.538a1.221,1.221,0,0,0-.929-.434,1.184,1.184,0,0,0,.023,2.358A1.137,1.137,0,0,0,469.3,155.308Z"/>
    <path d="M472.113,156.45a1.876,1.876,0,0,1-1.879-1.916,1.819,1.819,0,0,1,1.8-1.909,1.772,1.772,0,0,1,1.747,1.9v.206h-2.727a1.128,1.128,0,0,0,1.1,1.01,1.2,1.2,0,0,0,.878-.347l.545.509A2.134,2.134,0,0,1,472.113,156.45Zm-1.047-2.226h1.924a1.011,1.011,0,0,0-.965-.921A.993.993,0,0,0,471.066,154.224Z"/>
    <path d="M476.261,156.45a2.592,2.592,0,0,1-1.909-.774l.546-.509a1.69,1.69,0,0,0,1.356.576c.663,0,1.12-.347,1.12-.855a.815.815,0,0,0-.914-.774h-.641v-.671h.575a.748.748,0,0,0,.818-.774.89.89,0,0,0-.98-.818,1.6,1.6,0,0,0-1.283.612l-.545-.509a2.5,2.5,0,0,1,1.857-.818,1.572,1.572,0,0,1,1.761,1.444,1.24,1.24,0,0,1-1,1.18,1.278,1.278,0,0,1,1.164,1.179C478.184,155.816,477.382,156.45,476.261,156.45Z"/>
    <path d="M482.449,154.409h.663v.692h-.663v1.275h-.8V155.1h-2.771v-.655l2.66-3.229h.914Zm-.8,0v-2.33l-1.909,2.33Z"/>
    <path d="M483.744,153.929c0-1.673.958-2.785,2.4-2.785a2.318,2.318,0,0,1,1.37.442l-.441.6a1.634,1.634,0,0,0-1-.317c-.958,0-1.519.752-1.533,2.048a1.789,1.789,0,0,1,1.422-.751,1.6,1.6,0,0,1,1.724,1.584,1.7,1.7,0,0,1-1.812,1.7A2.236,2.236,0,0,1,483.744,153.929Zm.841.494c.125.8.611,1.327,1.267,1.327a.994.994,0,0,0,1.054-.98.973.973,0,0,0-1.062-.966A1.613,1.613,0,0,0,484.585,154.423Z"/>
    <path d="M489.38,155.905a.517.517,0,1,1-.516-.538A.528.528,0,0,1,489.38,155.905Z"/>
    <path d="M491.184,155.905a.516.516,0,1,1-.515-.538A.527.527,0,0,1,491.184,155.905Z"/>
  </g>
  <g>
    <path d="M377.106,154.206c0-1.569.855-2.653,2.108-2.653s2.108,1.084,2.108,2.653c0,1.585-.848,2.661-2.108,2.661S377.106,155.791,377.106,154.206Zm3.412,0c0-1.186-.508-1.938-1.3-1.938s-1.3.76-1.3,1.938c0,1.2.508,1.946,1.3,1.946S380.518,155.408,380.518,154.206Z"/>
    <path d="M382.063,154.346c0-1.673.958-2.785,2.4-2.785a2.32,2.32,0,0,1,1.37.442l-.442.6a1.634,1.634,0,0,0-1-.317c-.958,0-1.518.752-1.533,2.048a1.789,1.789,0,0,1,1.422-.751,1.6,1.6,0,0,1,1.724,1.584,1.7,1.7,0,0,1-1.812,1.7A2.236,2.236,0,0,1,382.063,154.346Zm.841.494c.125.8.611,1.327,1.268,1.327a.994.994,0,0,0,1.053-.98.972.972,0,0,0-1.061-.966A1.615,1.615,0,0,0,382.9,154.84Z"/>
    <path d="M388.245,156.793h-.8v-4.318l-.914.4v-.714l1.209-.524h.509Z"/>
    <path d="M389.15,156.211,391.265,154a1.378,1.378,0,0,0,.5-.972.84.84,0,0,0-.943-.76,1.859,1.859,0,0,0-1.334.634l-.457-.553a2.615,2.615,0,0,1,1.813-.781c1.01,0,1.7.575,1.7,1.408a1.972,1.972,0,0,1-.738,1.437l-1.65,1.7,2.483-.015v.692H389.15Z"/>
    <path d="M396.113,152.349h-2.955v-.715H397v.605l-2.336,4.554h-.943Z"/>
    <path d="M400.385,156.3a1.421,1.421,0,0,1-1.135.531,1.889,1.889,0,0,1,.052-3.758,1.411,1.411,0,0,1,1.076.486v-2.034l.832-.14v5.409h-.825Zm-.885-.169a1.109,1.109,0,0,0,.878-.405v-1.556a1.15,1.15,0,0,0-.878-.4,1.182,1.182,0,0,0,0,2.358Z"/>
    <path d="M404.915,152.349h-2.956v-.715h3.84v.605l-2.336,4.554h-.944Z"/>
    <path d="M406.756,156.322a.517.517,0,1,1-.516-.538A.529.529,0,0,1,406.756,156.322Z"/>
    <path d="M408.56,156.322a.516.516,0,1,1-.515-.538A.528.528,0,0,1,408.56,156.322Z"/>
  </g>
  <g>
    <path d="M296.9,154.826h.663v.692H296.9v1.275h-.8v-1.275h-2.77v-.655l2.66-3.229h.914Zm-.8,0V152.5l-1.908,2.33Z"/>
    <path d="M301.694,154.826h.663v.692h-.663v1.275h-.8v-1.275h-2.77v-.655l2.66-3.229h.914Zm-.8,0V152.5l-1.908,2.33Z"/>
    <path d="M305.775,156.3a1.421,1.421,0,0,1-1.135.531,1.889,1.889,0,0,1,.052-3.758,1.408,1.408,0,0,1,1.076.486v-2.034l.832-.14v5.409h-.825Zm-.885-.169a1.106,1.106,0,0,0,.878-.405v-1.556a1.148,1.148,0,0,0-.878-.4,1.182,1.182,0,0,0,0,2.358Z"/>
    <path d="M309.539,156.83a1.374,1.374,0,0,1-1.091-.516v.479h-.818v-5.269l.833-.14V153.6a1.436,1.436,0,0,1,1.134-.523,1.771,1.771,0,0,1,1.673,1.879A1.79,1.79,0,0,1,309.539,156.83Zm-1.076-2.646v1.541a1.131,1.131,0,0,0,.884.405,1.182,1.182,0,0,0,0-2.358A1.082,1.082,0,0,0,308.463,154.184Z"/>
    <path d="M311.983,154.346c0-1.673.958-2.785,2.4-2.785a2.321,2.321,0,0,1,1.371.442l-.442.6a1.634,1.634,0,0,0-1-.317c-.958,0-1.518.752-1.533,2.048a1.789,1.789,0,0,1,1.422-.751,1.6,1.6,0,0,1,1.724,1.584,1.7,1.7,0,0,1-1.812,1.7A2.236,2.236,0,0,1,311.983,154.346Zm.841.494c.125.8.611,1.327,1.268,1.327a.994.994,0,0,0,1.053-.98.972.972,0,0,0-1.061-.966A1.615,1.615,0,0,0,312.824,154.84Z"/>
    <path d="M320.154,154.826h.663v.692h-.663v1.275h-.8v-1.275H316.58v-.655l2.66-3.229h.914Zm-.8,0V152.5l-1.909,2.33Z"/>
    <path d="M324.95,154.826h.663v.692h-.663v1.275h-.8v-1.275h-2.77v-.655l2.66-3.229h.914Zm-.8,0V152.5l-1.908,2.33Z"/>
    <path d="M327.239,156.322a.516.516,0,1,1-.516-.538A.527.527,0,0,1,327.239,156.322Z"/>
    <path d="M329.044,156.322a.517.517,0,1,1-.516-.538A.528.528,0,0,1,329.044,156.322Z"/>
  </g>
  <g>
    <path d="M217.218,162.865c0,1.673-.958,2.786-2.4,2.786a2.322,2.322,0,0,1-1.371-.443l.442-.6a1.633,1.633,0,0,0,1,.316c.958,0,1.518-.751,1.533-2.049a1.785,1.785,0,0,1-1.423.752,1.6,1.6,0,0,1-1.724-1.584,1.7,1.7,0,0,1,1.813-1.695A2.235,2.235,0,0,1,217.218,162.865Zm-.84-.494c-.125-.8-.612-1.327-1.267-1.327a.994.994,0,0,0-1.055.981.973.973,0,0,0,1.062.966A1.613,1.613,0,0,0,216.378,162.371Z"/>
    <path d="M217.953,163.137c0-1.673.958-2.785,2.4-2.785a2.321,2.321,0,0,1,1.371.442l-.442.6a1.634,1.634,0,0,0-1-.317c-.958,0-1.518.752-1.533,2.048a1.789,1.789,0,0,1,1.422-.751,1.6,1.6,0,0,1,1.725,1.584,1.7,1.7,0,0,1-1.813,1.7A2.235,2.235,0,0,1,217.953,163.137Zm.84.494c.125.8.612,1.327,1.268,1.327a.993.993,0,0,0,1.053-.98.973.973,0,0,0-1.061-.966A1.615,1.615,0,0,0,218.793,163.631Z"/>
    <path d="M224.481,165.658a1.877,1.877,0,0,1-1.88-1.916,1.82,1.82,0,0,1,1.8-1.909,1.772,1.772,0,0,1,1.746,1.9v.206H223.42a1.128,1.128,0,0,0,1.105,1.01,1.2,1.2,0,0,0,.877-.347l.545.509A2.133,2.133,0,0,1,224.481,165.658Zm-1.047-2.226h1.924a1.011,1.011,0,0,0-.966-.921A.992.992,0,0,0,223.434,163.432Z"/>
    <path d="M230.759,162.865c0,1.673-.958,2.786-2.4,2.786a2.321,2.321,0,0,1-1.37-.443l.442-.6a1.631,1.631,0,0,0,1,.316c.958,0,1.518-.751,1.533-2.049a1.786,1.786,0,0,1-1.422.752,1.6,1.6,0,0,1-1.725-1.584,1.7,1.7,0,0,1,1.813-1.695A2.236,2.236,0,0,1,230.759,162.865Zm-.841-.494c-.125-.8-.612-1.327-1.268-1.327a.994.994,0,0,0-1.054.981.973.973,0,0,0,1.062.966A1.613,1.613,0,0,0,229.918,162.371Z"/>
    <path d="M234.278,164.516l.5.5a1.923,1.923,0,0,1-1.444.641,1.91,1.91,0,0,1,0-3.818,1.99,1.99,0,0,1,1.473.619l-.515.538a1.221,1.221,0,0,0-.929-.434,1.184,1.184,0,0,0,.022,2.358A1.135,1.135,0,0,0,234.278,164.516Z"/>
    <path d="M237.092,165.658a1.876,1.876,0,0,1-1.879-1.916,1.818,1.818,0,0,1,1.8-1.909,1.773,1.773,0,0,1,1.748,1.9v.206H236.03a1.128,1.128,0,0,0,1.1,1.01,1.2,1.2,0,0,0,.878-.347l.545.509A2.132,2.132,0,0,1,237.092,165.658Zm-1.047-2.226h1.923a1.009,1.009,0,0,0-.964-.921A.992.992,0,0,0,236.045,163.432Z"/>
    <path d="M242.278,161.14h-2.956v-.715h3.84v.6l-2.336,4.554h-.943Z"/>
    <path d="M244.119,165.113a.516.516,0,1,1-.516-.538A.528.528,0,0,1,244.119,165.113Z"/>
    <path d="M245.924,165.113a.517.517,0,1,1-.516-.538A.529.529,0,0,1,245.924,165.113Z"/>
  </g>
  <g>
    <path d="M133.252,152.349H130.3v-.715h3.839v.605l-2.336,4.554h-.943Z"/>
    <path d="M138.652,154.074c0,1.672-.958,2.786-2.4,2.786a2.327,2.327,0,0,1-1.371-.443l.443-.6a1.631,1.631,0,0,0,1,.316c.958,0,1.518-.751,1.532-2.049a1.783,1.783,0,0,1-1.422.752,1.6,1.6,0,0,1-1.725-1.584,1.7,1.7,0,0,1,1.813-1.695A2.235,2.235,0,0,1,138.652,154.074Zm-.84-.494c-.126-.8-.612-1.327-1.268-1.327a.994.994,0,0,0-1.054.981.973.973,0,0,0,1.062.966A1.614,1.614,0,0,0,137.812,153.58Z"/>
    <path d="M139.394,154.206c0-1.569.855-2.653,2.108-2.653s2.108,1.084,2.108,2.653c0,1.585-.848,2.661-2.108,2.661S139.394,155.791,139.394,154.206Zm3.412,0c0-1.186-.508-1.938-1.3-1.938s-1.305.76-1.305,1.938c0,1.2.509,1.946,1.305,1.946S142.806,155.408,142.806,154.206Z"/>
    <path d="M147.137,156.3a1.417,1.417,0,0,1-1.134.531,1.889,1.889,0,0,1,.051-3.758,1.405,1.405,0,0,1,1.076.486v-2.034l.833-.14v5.409h-.826Zm-.884-.169a1.105,1.105,0,0,0,.877-.405v-1.556a1.147,1.147,0,0,0-.877-.4,1.182,1.182,0,0,0,0,2.358Z"/>
    <path d="M151.631,156.3a1.421,1.421,0,0,1-1.135.531,1.889,1.889,0,0,1,.051-3.758,1.405,1.405,0,0,1,1.076.486v-2.034l.833-.14v5.409h-.825Zm-.885-.169a1.105,1.105,0,0,0,.877-.405v-1.556a1.146,1.146,0,0,0-.877-.4,1.182,1.182,0,0,0,0,2.358Z"/>
    <path d="M157.251,154.074c0,1.672-.958,2.786-2.4,2.786a2.322,2.322,0,0,1-1.371-.443l.442-.6a1.633,1.633,0,0,0,1,.316c.958,0,1.518-.751,1.533-2.049a1.785,1.785,0,0,1-1.422.752,1.6,1.6,0,0,1-1.725-1.584,1.7,1.7,0,0,1,1.813-1.695A2.234,2.234,0,0,1,157.251,154.074Zm-.84-.494c-.125-.8-.611-1.327-1.267-1.327a.994.994,0,0,0-1.054.981.973.973,0,0,0,1.061.966A1.613,1.613,0,0,0,156.411,153.58Z"/>
    <path d="M161.487,154.826h.664v.692h-.664v1.275h-.8v-1.275h-2.771v-.655l2.66-3.229h.914Zm-.8,0V152.5l-1.909,2.33Z"/>
    <path d="M163.777,156.322a.516.516,0,1,1-.517-.538A.528.528,0,0,1,163.777,156.322Z"/>
    <path d="M165.581,156.322a.516.516,0,1,1-.516-.538A.528.528,0,0,1,165.581,156.322Z"/>
  </g>
  <g>
    <path d="M378.551,25.02h-.8V20.7l-.914.4v-.715l1.209-.523h.509Z"/>
    <path d="M379.456,24.438l2.115-2.211a1.382,1.382,0,0,0,.5-.973.841.841,0,0,0-.943-.759,1.857,1.857,0,0,0-1.334.633l-.457-.552a2.61,2.61,0,0,1,1.813-.782c1.01,0,1.7.576,1.7,1.409a1.967,1.967,0,0,1-.737,1.436l-1.65,1.7,2.483-.014v.692h-3.493Z"/>
    <path d="M385.5,25.093a1.876,1.876,0,0,1-1.879-1.916,1.817,1.817,0,0,1,1.8-1.908,1.773,1.773,0,0,1,1.747,1.9v.206h-2.728a1.128,1.128,0,0,0,1.106,1.01,1.2,1.2,0,0,0,.878-.347l.544.509A2.132,2.132,0,0,1,385.5,25.093Zm-1.047-2.225h1.924a1.011,1.011,0,0,0-.965-.921A.992.992,0,0,0,384.457,22.868Z"/>
    <path d="M391.781,22.3c0,1.673-.958,2.786-2.4,2.786a2.325,2.325,0,0,1-1.37-.442l.442-.6a1.629,1.629,0,0,0,.994.317c.958,0,1.519-.751,1.533-2.049a1.787,1.787,0,0,1-1.422.752,1.6,1.6,0,0,1-1.724-1.584,1.7,1.7,0,0,1,1.812-1.7A2.235,2.235,0,0,1,391.781,22.3Zm-.841-.493c-.125-.8-.611-1.327-1.267-1.327a.993.993,0,0,0-1.054.98.972.972,0,0,0,1.061.966A1.609,1.609,0,0,0,390.94,21.807Z"/>
    <path d="M394.572,25.057a1.374,1.374,0,0,1-1.091-.517v.48h-.818V19.75l.833-.139v2.211a1.436,1.436,0,0,1,1.135-.524,1.771,1.771,0,0,1,1.672,1.879A1.789,1.789,0,0,1,394.572,25.057ZM393.5,22.411v1.541a1.135,1.135,0,0,0,.885.4,1.183,1.183,0,0,0,0-2.359A1.082,1.082,0,0,0,393.5,22.411Z"/>
    <path d="M399.073,25.057a1.374,1.374,0,0,1-1.091-.517v.48h-.818V19.75l.833-.139v2.211a1.436,1.436,0,0,1,1.135-.524,1.771,1.771,0,0,1,1.672,1.879A1.789,1.789,0,0,1,399.073,25.057ZM398,22.411v1.541a1.135,1.135,0,0,0,.885.4,1.183,1.183,0,0,0,0-2.359A1.082,1.082,0,0,0,398,22.411Z"/>
    <path d="M403.574,25.057a1.374,1.374,0,0,1-1.091-.517v.48h-.818V19.75l.833-.139v2.211a1.436,1.436,0,0,1,1.135-.524,1.771,1.771,0,0,1,1.672,1.879A1.789,1.789,0,0,1,403.574,25.057ZM402.5,22.411v1.541a1.135,1.135,0,0,0,.885.4,1.183,1.183,0,0,0,0-2.359A1.081,1.081,0,0,0,402.5,22.411Z"/>
    <path d="M406.925,24.548a.517.517,0,1,1-1.033,0,.517.517,0,1,1,1.033,0Z"/>
    <path d="M408.729,24.548a.516.516,0,1,1-1.032,0,.516.516,0,1,1,1.032,0Z"/>
  </g>
  <g>
    <rect class="cls-6" x="366.242" y="27.776" width="53.196" height="8.613"/>
    <g>
      <path class="cls-9" d="M379.942,31.105v-.546A.943.943,0,0,1,381,29.529a1.677,1.677,0,0,1,.461.061v.589a1.421,1.421,0,0,0-.369-.05c-.319,0-.46.142-.46.443v.533h.829v.552h-.829v2.521h-.693V31.657h-.663v-.552Z"/>
      <path class="cls-9" d="M383.367,34.24a1.563,1.563,0,0,1-1.565-1.595,1.514,1.514,0,0,1,1.5-1.589,1.476,1.476,0,0,1,1.454,1.582v.172h-2.271a.94.94,0,0,0,.921.841,1,1,0,0,0,.73-.288l.454.423A1.783,1.783,0,0,1,383.367,34.24Zm-.871-1.853h1.6a.839.839,0,0,0-.8-.766A.825.825,0,0,0,382.5,32.387Z"/>
      <path class="cls-9" d="M385.283,33.3c0-.552.447-.9,1.171-.9a1.891,1.891,0,0,1,.828.19v-.337c0-.405-.232-.614-.7-.614a2.136,2.136,0,0,0-.9.239l-.245-.5a2.947,2.947,0,0,1,1.276-.313c.8,0,1.257.4,1.257,1.116v2.006h-.687v-.312a1.282,1.282,0,0,1-.914.361A.968.968,0,0,1,385.283,33.3Zm1.275.448a1.093,1.093,0,0,0,.724-.252v-.5a1.592,1.592,0,0,0-.711-.147c-.393,0-.639.172-.639.442S386.178,33.743,386.558,33.743Z"/>
      <path class="cls-9" d="M389.1,31.657h-.619v-.552h.619v-.847l.694-.146v.993h.858v.552h-.858v1.558c0,.3.116.417.429.417a1.276,1.276,0,0,0,.417-.073v.582a2.146,2.146,0,0,1-.595.086c-.619,0-.945-.294-.945-.858Z"/>
      <path class="cls-9" d="M391.936,32.933a.662.662,0,0,0,.675.736.774.774,0,0,0,.674-.381V31.105h.693v3.073h-.693v-.509a1.123,1.123,0,0,1-.981.558,1.03,1.03,0,0,1-1.061-1.1V31.105h.693Z"/>
      <path class="cls-9" d="M394.835,31.105h.692v.669a.912.912,0,0,1,.847-.724.821.821,0,0,1,.3.061v.607a.978.978,0,0,0-.38-.073.845.845,0,0,0-.768.509v2.024h-.692Z"/>
      <path class="cls-9" d="M398.522,34.24a1.563,1.563,0,0,1-1.564-1.595,1.514,1.514,0,0,1,1.5-1.589,1.475,1.475,0,0,1,1.453,1.582v.172h-2.27a.941.941,0,0,0,.921.841,1,1,0,0,0,.73-.288l.454.423A1.781,1.781,0,0,1,398.522,34.24Zm-.871-1.853h1.6a.84.84,0,0,0-.8-.766A.825.825,0,0,0,397.651,32.387Z"/>
      <path class="cls-9" d="M402.248,29.884h.675l-2.454,5.57H399.8Z"/>
      <path class="cls-9" d="M403.4,33.694l1.761-1.841a1.147,1.147,0,0,0,.417-.81.7.7,0,0,0-.785-.631,1.548,1.548,0,0,0-1.111.528l-.379-.461a2.166,2.166,0,0,1,1.508-.65c.841,0,1.417.479,1.417,1.171a1.639,1.639,0,0,1-.613,1.2l-1.374,1.417,2.067-.012v.576H403.4Z"/>
    </g>
  </g>
  <g>
    <rect class="cls-6" x="529.457" y="148.094" width="53.196" height="8.613"/>
    <g>
      <path class="cls-9" d="M549.548,151.423h.692v.491a1.05,1.05,0,0,1,.914-.54.968.968,0,0,1,.9.595,1.134,1.134,0,0,1,1.018-.595,1.019,1.019,0,0,1,1.007,1.117v2h-.694v-1.858a.622.622,0,0,0-.62-.706.733.733,0,0,0-.619.362c.006.068.012.129.012.2v2h-.692v-1.858a.623.623,0,0,0-.621-.706.714.714,0,0,0-.607.35V154.5h-.692Z"/>
      <path class="cls-9" d="M554.771,153.614c0-.553.447-.9,1.171-.9a1.892,1.892,0,0,1,.828.191v-.338c0-.4-.232-.613-.7-.613a2.128,2.128,0,0,0-.9.239l-.245-.5a2.943,2.943,0,0,1,1.275-.313c.8,0,1.258.405,1.258,1.117v2h-.688v-.312a1.282,1.282,0,0,1-.914.361A.969.969,0,0,1,554.771,153.614Zm1.276.447a1.092,1.092,0,0,0,.723-.252v-.5a1.6,1.6,0,0,0-.711-.146c-.392,0-.638.171-.638.441S555.667,154.061,556.047,154.061Z"/>
      <path class="cls-9" d="M558.216,150.374a.432.432,0,0,1,.864,0,.432.432,0,0,1-.864,0Zm.778,4.122H558.3v-3.073h.692Z"/>
      <path class="cls-9" d="M559.848,151.423h.693v.5a1.116,1.116,0,0,1,.975-.552,1.035,1.035,0,0,1,1.062,1.1V154.5h-.693v-1.828a.662.662,0,0,0-.675-.736.788.788,0,0,0-.669.368v2.2h-.693Z"/>
    </g>
  </g>
  <g>
    <rect class="cls-3" x="529.457" y="158.075" width="53.196" height="8.613"/>
    <g>
      <path class="cls-4" d="M547.828,160.184h.736v1.81H550.7v-1.81h.736v4.294H550.7v-1.84h-2.135v1.84h-.736Z"/>
      <path class="cls-4" d="M552.438,160.184h3.073v.626h-2.337v1.2H554.8v.614h-1.631v1.232h2.362v.626h-3.1Z"/>
      <path class="cls-4" d="M557.655,160.184h.853l1.662,4.294h-.791l-.436-1.2h-1.766l-.442,1.2h-.767Zm1.073,2.515-.662-1.828-.675,1.828Z"/>
      <path class="cls-4" d="M560.725,160.184H562.3a2.147,2.147,0,1,1,0,4.294h-1.571Zm.736.638v3.018h.852a1.516,1.516,0,0,0,0-3.018Z"/>
    </g>
  </g>
  <g>
    <rect class="cls-10" x="203.64" y="148.094" width="53.196" height="8.613"/>
    <g>
      <path class="cls-4" d="M220.235,151.975h-.62v-.552h.62v-.846l.693-.147v.993h.859v.552h-.859v1.559c0,.3.116.417.429.417a1.276,1.276,0,0,0,.417-.074v.582a2.146,2.146,0,0,1-.595.086c-.619,0-.944-.294-.944-.858Z"/>
      <path class="cls-4" d="M222.242,153.614c0-.553.448-.9,1.173-.9a1.9,1.9,0,0,1,.828.191v-.338c0-.4-.233-.613-.706-.613a2.143,2.143,0,0,0-.9.239l-.245-.5a2.947,2.947,0,0,1,1.277-.313c.8,0,1.256.405,1.256,1.117v2h-.686v-.312a1.285,1.285,0,0,1-.914.361A.969.969,0,0,1,222.242,153.614Zm1.277.447a1.1,1.1,0,0,0,.724-.252v-.5a1.607,1.607,0,0,0-.712-.146c-.393,0-.638.171-.638.441S223.138,154.061,223.519,154.061Z"/>
      <path class="cls-4" d="M225.631,152.956a1.482,1.482,0,0,1,1.435-1.557,1.156,1.156,0,0,1,.9.417v-.393h.687V154.6c0,.791-.516,1.227-1.448,1.227a2.686,2.686,0,0,1-1.233-.294l.245-.516a2.1,2.1,0,0,0,.958.264c.515,0,.785-.234.785-.681v-.522a1.193,1.193,0,0,1-.939.436A1.473,1.473,0,0,1,225.631,152.956Zm1.6.982a.92.92,0,0,0,.73-.337v-1.288a.952.952,0,0,0-.73-.331.916.916,0,0,0-.914.974A.929.929,0,0,0,227.232,153.938Z"/>
      <path class="cls-4" d="M231.3,150.2h.674l-2.453,5.569h-.674Z"/>
      <path class="cls-4" d="M233.856,154.5h-.669V150.9l-.76.331v-.595l1.006-.435h.423Z"/>
      <path class="cls-4" d="M235.476,154.1a.429.429,0,1,1-.858,0,.429.429,0,1,1,.858,0Z"/>
      <path class="cls-4" d="M236,152.343c0-1.306.712-2.208,1.755-2.208s1.754.9,1.754,2.208-.706,2.215-1.754,2.215S236,153.663,236,152.343Zm2.841,0c0-.987-.424-1.613-1.086-1.613s-1.086.632-1.086,1.613.423,1.62,1.086,1.62S238.84,153.343,238.84,152.343Z"/>
    </g>
  </g>
  <g>
    <path class="cls-9" d="M217.393,31.105v-.546a.943.943,0,0,1,1.061-1.03,1.67,1.67,0,0,1,.46.061v.589a1.414,1.414,0,0,0-.368-.05c-.319,0-.46.142-.46.443v.533h.828v.552h-.828v2.521h-.693V31.657h-.663v-.552Z"/>
    <path class="cls-9" d="M220.817,34.24a1.563,1.563,0,0,1-1.564-1.595,1.514,1.514,0,0,1,1.5-1.589,1.475,1.475,0,0,1,1.453,1.582v.172h-2.269a.939.939,0,0,0,.92.841,1,1,0,0,0,.73-.288l.454.423A1.783,1.783,0,0,1,220.817,34.24Zm-.871-1.853h1.6a.84.84,0,0,0-.8-.766A.824.824,0,0,0,219.946,32.387Z"/>
    <path class="cls-9" d="M222.734,33.3c0-.552.447-.9,1.172-.9a1.9,1.9,0,0,1,.828.19v-.337c0-.405-.233-.614-.705-.614a2.136,2.136,0,0,0-.9.239l-.246-.5a2.951,2.951,0,0,1,1.277-.313c.8,0,1.257.4,1.257,1.116v2.006h-.687v-.312a1.284,1.284,0,0,1-.914.361A.969.969,0,0,1,222.734,33.3Zm1.276.448a1.1,1.1,0,0,0,.724-.252v-.5a1.593,1.593,0,0,0-.712-.147c-.392,0-.637.172-.637.442S223.63,33.743,224.01,33.743Z"/>
    <path class="cls-9" d="M226.552,31.657h-.62v-.552h.62v-.847l.693-.146v.993h.858v.552h-.858v1.558c0,.3.116.417.43.417a1.284,1.284,0,0,0,.417-.073v.582a2.158,2.158,0,0,1-.6.086c-.619,0-.944-.294-.944-.858Z"/>
    <path class="cls-9" d="M229.387,32.933a.662.662,0,0,0,.675.736.774.774,0,0,0,.674-.381V31.105h.693v3.073h-.693v-.509a1.12,1.12,0,0,1-.98.558,1.031,1.031,0,0,1-1.062-1.1V31.105h.693Z"/>
    <path class="cls-9" d="M232.286,31.105h.692v.669a.912.912,0,0,1,.847-.724.821.821,0,0,1,.3.061v.607a.978.978,0,0,0-.38-.073.846.846,0,0,0-.768.509v2.024h-.692Z"/>
    <path class="cls-9" d="M235.973,34.24a1.563,1.563,0,0,1-1.564-1.595,1.514,1.514,0,0,1,1.5-1.589,1.475,1.475,0,0,1,1.453,1.582v.172H235.09a.939.939,0,0,0,.92.841,1,1,0,0,0,.73-.288l.454.423A1.781,1.781,0,0,1,235.973,34.24Zm-.871-1.853h1.6a.84.84,0,0,0-.8-.766A.825.825,0,0,0,235.1,32.387Z"/>
    <path class="cls-9" d="M239.7,29.884h.675l-2.453,5.57h-.675Z"/>
    <path class="cls-9" d="M242.26,34.178h-.669V30.583l-.761.331V30.32l1.007-.436h.423Z"/>
  </g>
  <g>
    <path d="M297.61,29.783h-2.956v-.715h3.84v.6l-2.336,4.555h-.943Z"/>
    <path d="M299.008,32.8a1.359,1.359,0,0,1,1.113-1.26,1.257,1.257,0,0,1-.944-1.149,1.783,1.783,0,0,1,3.486,0,1.259,1.259,0,0,1-.936,1.149,1.359,1.359,0,0,1,1.113,1.26c0,.878-.8,1.5-1.916,1.5S299.008,33.682,299.008,32.8Zm3.021-.058c0-.5-.472-.877-1.105-.877s-1.113.376-1.113.877a1.136,1.136,0,0,0,2.218,0Zm-.154-2.3a.97.97,0,1,0-.951.8A.87.87,0,0,0,301.875,30.446Z"/>
    <path d="M305.447,34.3a1.876,1.876,0,0,1-1.879-1.916,1.818,1.818,0,0,1,1.8-1.908,1.772,1.772,0,0,1,1.747,1.9v.206h-2.728a1.13,1.13,0,0,0,1.106,1.01,1.2,1.2,0,0,0,.878-.347l.545.509A2.134,2.134,0,0,1,305.447,34.3ZM304.4,32.075h1.924a1.011,1.011,0,0,0-.965-.921A.993.993,0,0,0,304.4,32.075Z"/>
    <path d="M310.619,33.159l.5.5a1.922,1.922,0,0,1-1.444.64,1.909,1.909,0,0,1,0-3.817,1.987,1.987,0,0,1,1.473.619l-.515.538a1.224,1.224,0,0,0-.929-.435,1.185,1.185,0,0,0,.022,2.359A1.138,1.138,0,0,0,310.619,33.159Z"/>
    <path d="M313.742,34.264a1.374,1.374,0,0,1-1.091-.517v.48h-.818v-5.27l.833-.139v2.211a1.436,1.436,0,0,1,1.135-.524,1.771,1.771,0,0,1,1.672,1.879A1.789,1.789,0,0,1,313.742,34.264Zm-1.076-2.646v1.541a1.135,1.135,0,0,0,.885.405,1.183,1.183,0,0,0,0-2.359A1.081,1.081,0,0,0,312.666,31.618Z"/>
    <path d="M317.969,34.3a2.593,2.593,0,0,1-1.909-.773l.546-.509a1.689,1.689,0,0,0,1.356.575c.663,0,1.12-.347,1.12-.854a.815.815,0,0,0-.914-.775h-.641v-.671h.575a.747.747,0,0,0,.818-.773.89.89,0,0,0-.981-.818,1.6,1.6,0,0,0-1.282.612l-.545-.509a2.5,2.5,0,0,1,1.857-.818,1.572,1.572,0,0,1,1.761,1.444,1.242,1.242,0,0,1-1,1.18,1.276,1.276,0,0,1,1.164,1.178C319.892,33.666,319.09,34.3,317.969,34.3Z"/>
    <path d="M320.613,33.645l2.115-2.211a1.382,1.382,0,0,0,.5-.973.84.84,0,0,0-.943-.759,1.857,1.857,0,0,0-1.334.633l-.457-.552A2.61,2.61,0,0,1,322.308,29c1.01,0,1.7.576,1.7,1.409a1.967,1.967,0,0,1-.737,1.436l-1.65,1.7,2.483-.014v.692h-3.493Z"/>
    <path d="M325.851,33.755a.516.516,0,1,1-.515-.538A.527.527,0,0,1,325.851,33.755Z"/>
    <path d="M327.656,33.755a.516.516,0,1,1-.516-.538A.527.527,0,0,1,327.656,33.755Z"/>
  </g>
  <g>
    <path d="M214.3,23.6a1.359,1.359,0,0,1,1.113-1.26,1.258,1.258,0,0,1-.944-1.149,1.783,1.783,0,0,1,3.486,0,1.258,1.258,0,0,1-.935,1.149,1.359,1.359,0,0,1,1.113,1.26c0,.878-.8,1.5-1.917,1.5S214.3,24.475,214.3,23.6Zm3.022-.059c0-.5-.472-.876-1.106-.876s-1.113.376-1.113.876a1.136,1.136,0,0,0,2.219,0Zm-.155-2.3a.97.97,0,1,0-.951.8A.87.87,0,0,0,217.166,21.239Z"/>
    <path d="M219.53,21.328v-.657a1.133,1.133,0,0,1,1.274-1.238,2.011,2.011,0,0,1,.553.074v.707a1.705,1.705,0,0,0-.442-.058c-.383,0-.552.17-.552.53v.642h.994v.663h-.994V25.02h-.833V21.991h-.8v-.663Z"/>
    <path d="M224.731,20.576h-2.955v-.715h3.84v.6L223.28,25.02h-.944Z"/>
    <path d="M229,23.952l.5.5a1.923,1.923,0,0,1-1.445.64,1.909,1.909,0,0,1,0-3.817,1.989,1.989,0,0,1,1.474.619l-.516.538A1.222,1.222,0,0,0,228.09,22a1.185,1.185,0,0,0,.022,2.359A1.138,1.138,0,0,0,229,23.952Z"/>
    <path d="M230.093,23.6a1.359,1.359,0,0,1,1.113-1.26,1.257,1.257,0,0,1-.944-1.149,1.783,1.783,0,0,1,3.486,0,1.259,1.259,0,0,1-.936,1.149,1.359,1.359,0,0,1,1.113,1.26c0,.878-.8,1.5-1.916,1.5S230.093,24.475,230.093,23.6Zm3.021-.059c0-.5-.472-.876-1.105-.876s-1.113.376-1.113.876a1.135,1.135,0,0,0,2.218,0Zm-.154-2.3a.97.97,0,1,0-.951.8A.87.87,0,0,0,232.96,21.239Z"/>
    <path d="M234.653,22.433c0-1.569.855-2.653,2.107-2.653s2.109,1.084,2.109,2.653c0,1.585-.848,2.66-2.109,2.66S234.653,24.018,234.653,22.433Zm3.412,0c0-1.187-.509-1.938-1.305-1.938s-1.3.759-1.3,1.938c0,1.194.508,1.945,1.3,1.945S238.065,23.634,238.065,22.433Z"/>
    <path d="M241.2,25.02h-.8V20.7l-.914.4v-.715l1.209-.523h.509Z"/>
    <path d="M243.146,24.548a.516.516,0,1,1-.515-.538A.527.527,0,0,1,243.146,24.548Z"/>
    <path d="M244.951,24.548a.516.516,0,1,1-.516-.538A.527.527,0,0,1,244.951,24.548Z"/>
  </g>
  <g>
    <path d="M131.564,33.008c0-1.673.958-2.785,2.4-2.785a2.324,2.324,0,0,1,1.371.442l-.442.6a1.634,1.634,0,0,0-1-.317c-.958,0-1.518.752-1.533,2.049a1.786,1.786,0,0,1,1.422-.751,1.6,1.6,0,0,1,1.725,1.584,1.7,1.7,0,0,1-1.813,1.7A2.235,2.235,0,0,1,131.564,33.008Zm.84.494c.125.8.611,1.327,1.267,1.327a.993.993,0,0,0,1.054-.98.973.973,0,0,0-1.061-.966A1.613,1.613,0,0,0,132.4,33.5Z"/>
    <path d="M136.241,32.869c0-1.57.855-2.654,2.108-2.654s2.107,1.084,2.107,2.654c0,1.585-.847,2.66-2.107,2.66S136.241,34.454,136.241,32.869Zm3.412,0c0-1.187-.508-1.939-1.3-1.939s-1.3.76-1.3,1.939c0,1.194.508,1.945,1.3,1.945S139.653,34.07,139.653,32.869Z"/>
    <path d="M143.985,34.387l.5.5a1.921,1.921,0,0,1-1.445.641,1.91,1.91,0,0,1,0-3.818,1.993,1.993,0,0,1,1.474.619l-.516.539a1.217,1.217,0,0,0-.928-.435,1.184,1.184,0,0,0,.022,2.358A1.137,1.137,0,0,0,143.985,34.387Z"/>
    <path d="M145.052,33.008c0-1.673.958-2.785,2.4-2.785a2.324,2.324,0,0,1,1.371.442l-.442.6a1.637,1.637,0,0,0-1-.317c-.958,0-1.518.752-1.532,2.049a1.786,1.786,0,0,1,1.422-.751A1.6,1.6,0,0,1,149,33.827a1.7,1.7,0,0,1-1.813,1.7A2.235,2.235,0,0,1,145.052,33.008Zm.839.494c.126.8.612,1.327,1.268,1.327a.994.994,0,0,0,1.054-.98.973.973,0,0,0-1.061-.966A1.617,1.617,0,0,0,145.891,33.5Z"/>
    <path d="M152.507,34.387l.5.5a1.919,1.919,0,0,1-1.444.641,1.91,1.91,0,0,1,0-3.818,2,2,0,0,1,1.474.619l-.516.539a1.219,1.219,0,0,0-.929-.435,1.184,1.184,0,0,0,.022,2.358A1.135,1.135,0,0,0,152.507,34.387Z"/>
    <path d="M153.581,34.873l2.116-2.21a1.384,1.384,0,0,0,.5-.973.84.84,0,0,0-.943-.76,1.859,1.859,0,0,0-1.334.634l-.457-.553a2.613,2.613,0,0,1,1.813-.781c1.01,0,1.7.575,1.7,1.408a1.969,1.969,0,0,1-.737,1.437l-1.651,1.7,2.483-.015v.692h-3.493Z"/>
    <path d="M160.558,34.387l.5.5a1.923,1.923,0,0,1-1.445.641,1.91,1.91,0,0,1,0-3.818,1.994,1.994,0,0,1,1.474.619l-.516.539a1.219,1.219,0,0,0-.928-.435,1.184,1.184,0,0,0,.022,2.358A1.135,1.135,0,0,0,160.558,34.387Z"/>
    <path d="M162.642,34.984a.516.516,0,1,1-.516-.538A.527.527,0,0,1,162.642,34.984Z"/>
    <path d="M164.447,34.984a.516.516,0,1,1-.516-.538A.527.527,0,0,1,164.447,34.984Z"/>
  </g>
  <g>
    <path d="M52.524,156.867a1.876,1.876,0,0,1-1.879-1.916,1.819,1.819,0,0,1,1.8-1.909,1.772,1.772,0,0,1,1.747,1.9v.206H51.463a1.128,1.128,0,0,0,1.106,1.01,1.2,1.2,0,0,0,.877-.347l.545.509A2.136,2.136,0,0,1,52.524,156.867Zm-1.046-2.226H53.4a1.011,1.011,0,0,0-.965-.921A.991.991,0,0,0,51.478,154.641Z"/>
    <path d="M56.509,156.793h-.8v-4.318l-.914.4v-.714L56,151.634h.508Z"/>
    <path d="M59.191,156.867a2.592,2.592,0,0,1-1.909-.774l.545-.509a1.694,1.694,0,0,0,1.356.576c.664,0,1.121-.347,1.121-.855a.815.815,0,0,0-.914-.774h-.641v-.671h.574a.747.747,0,0,0,.818-.774.89.89,0,0,0-.98-.818,1.592,1.592,0,0,0-1.282.612l-.545-.509a2.5,2.5,0,0,1,1.857-.818A1.573,1.573,0,0,1,60.952,153a1.24,1.24,0,0,1-1,1.18,1.278,1.278,0,0,1,1.164,1.179C61.114,156.233,60.311,156.867,59.191,156.867Z"/>
    <path d="M64.561,152.349H61.606v-.715h3.84v.605l-2.337,4.554h-.943Z"/>
    <path d="M67.905,156.867a1.876,1.876,0,0,1-1.879-1.916,1.819,1.819,0,0,1,1.8-1.909,1.772,1.772,0,0,1,1.747,1.9v.206H66.844a1.128,1.128,0,0,0,1.105,1.01,1.2,1.2,0,0,0,.877-.347l.546.509A2.136,2.136,0,0,1,67.905,156.867Zm-1.046-2.226h1.923a1.011,1.011,0,0,0-.965-.921A.991.991,0,0,0,66.859,154.641Z"/>
    <path d="M74.182,154.074c0,1.672-.958,2.786-2.4,2.786a2.327,2.327,0,0,1-1.372-.443l.443-.6a1.633,1.633,0,0,0,1,.316c.958,0,1.518-.751,1.533-2.049a1.785,1.785,0,0,1-1.423.752,1.6,1.6,0,0,1-1.724-1.584,1.7,1.7,0,0,1,1.813-1.695A2.235,2.235,0,0,1,74.182,154.074Zm-.84-.494c-.125-.8-.612-1.327-1.268-1.327a.994.994,0,0,0-1.054.981.973.973,0,0,0,1.062.966A1.614,1.614,0,0,0,73.342,153.58Z"/>
    <path d="M76.973,156.83a1.372,1.372,0,0,1-1.091-.516v.479h-.818v-5.269l.833-.14V153.6a1.438,1.438,0,0,1,1.135-.523,1.772,1.772,0,0,1,1.673,1.879A1.79,1.79,0,0,1,76.973,156.83ZM75.9,154.184v1.541a1.131,1.131,0,0,0,.884.405,1.182,1.182,0,0,0,0-2.358A1.085,1.085,0,0,0,75.9,154.184Z"/>
    <path d="M80.324,156.322a.516.516,0,1,1-.516-.538A.528.528,0,0,1,80.324,156.322Z"/>
    <path d="M82.129,156.322a.516.516,0,1,1-.516-.538A.528.528,0,0,1,82.129,156.322Z"/>
  </g>
  <rect class="cls-2" x="447.85" y="105.779" width="53.196" height="41.106" transform="translate(948.895 252.665) rotate(-180)"/>
  <rect class="cls-2" x="366.242" y="105.779" width="53.196" height="41.106" transform="translate(785.68 252.665) rotate(-180)"/>
  <rect class="cls-2" x="284.634" y="105.779" width="53.196" height="41.106" transform="translate(622.464 252.665) rotate(-180)"/>
  <rect class="cls-2" x="203.026" y="105.779" width="53.196" height="41.106" transform="translate(459.249 252.665) rotate(-180)"/>
  <rect class="cls-2" x="121.418" y="105.779" width="53.196" height="41.106" transform="translate(296.033 252.665) rotate(-180)"/>
  <rect class="cls-2" x="39.811" y="105.779" width="53.196" height="41.106" transform="translate(132.817 252.665) rotate(-180)"/>
</svg>
